<svg width="884" height="447" viewBox="0 0 884 447" fill="none" xmlns="http://www.w3.org/2000/svg">
<rect x="0.699219" y="0.987793" width="883" height="445.319" fill="#181818"/>
<mask id="mask0_1_14033" style="mask-type:alpha" maskUnits="userSpaceOnUse" x="0" y="0" width="884" height="447">
<rect x="0.699219" y="0.987793" width="883" height="445.319" fill="#C4C4C4"/>
</mask>
<g mask="url(#mask0_1_14033)">
<g filter="url(#filter0_d_1_14033)">
<rect x="342.199" y="360.905" width="200" height="51" fill="#E3B873"/>
</g>
<path d="M422.04 394.022C421.32 394.022 420.67 393.931 420.09 393.749C419.509 393.558 419.006 393.285 418.582 392.93L418.959 392.072C419.401 392.41 419.864 392.661 420.35 392.826C420.835 392.99 421.398 393.073 422.04 393.073C422.82 393.073 423.396 392.93 423.769 392.644C424.15 392.349 424.341 391.963 424.341 391.487C424.341 391.105 424.202 390.802 423.925 390.577C423.656 390.351 423.201 390.174 422.56 390.044L421.208 389.771C420.393 389.597 419.782 389.316 419.375 388.926C418.976 388.527 418.777 387.998 418.777 387.34C418.777 386.794 418.915 386.317 419.193 385.91C419.479 385.502 419.873 385.186 420.376 384.961C420.878 384.735 421.459 384.623 422.118 384.623C422.733 384.623 423.305 384.722 423.834 384.922C424.362 385.112 424.809 385.39 425.173 385.754L424.796 386.586C424.406 386.23 423.994 385.975 423.561 385.819C423.127 385.654 422.642 385.572 422.105 385.572C421.42 385.572 420.874 385.732 420.467 386.053C420.059 386.365 419.856 386.781 419.856 387.301C419.856 387.717 419.981 388.046 420.233 388.289C420.493 388.531 420.913 388.709 421.494 388.822L422.846 389.108C423.721 389.29 424.367 389.567 424.783 389.94C425.207 390.304 425.42 390.802 425.42 391.435C425.42 391.946 425.281 392.397 425.004 392.787C424.735 393.177 424.345 393.48 423.834 393.697C423.331 393.913 422.733 394.022 422.04 394.022ZM430.688 394.022C429.483 394.022 428.569 393.705 427.945 393.073C427.321 392.431 427.009 391.5 427.009 390.278V384.74H428.075V390.226C428.075 392.124 428.946 393.073 430.688 393.073C432.413 393.073 433.275 392.124 433.275 390.226V384.74H434.341V390.278C434.341 391.5 434.029 392.431 433.405 393.073C432.79 393.705 431.884 394.022 430.688 394.022ZM436.532 393.905V384.74H440.198C441.143 384.74 441.871 384.952 442.382 385.377C442.902 385.793 443.162 386.378 443.162 387.132C443.162 387.634 443.032 388.063 442.772 388.419C442.512 388.774 442.152 389.034 441.693 389.199C442.222 389.337 442.633 389.593 442.928 389.966C443.231 390.338 443.383 390.811 443.383 391.383C443.383 392.197 443.119 392.821 442.59 393.255C442.061 393.688 441.316 393.905 440.354 393.905H436.532ZM437.572 388.835H440.042C441.42 388.835 442.109 388.297 442.109 387.223C442.109 386.139 441.42 385.598 440.042 385.598H437.572V388.835ZM437.572 393.047H440.25C441.637 393.047 442.33 392.488 442.33 391.37C442.33 390.252 441.637 389.693 440.25 389.693H437.572V393.047ZM445.343 393.905V384.74H446.24L449.763 391.357L453.26 384.74H454.157V393.905H453.169V386.742L450.114 392.488H449.412L446.318 386.755V393.905H445.343ZM456.438 393.905V384.74H457.504V393.905H456.438ZM462.013 393.905V385.663H458.685V384.74H466.42V385.663H463.092V393.905H462.013Z" fill="white"/>
<rect width="231" height="1" transform="matrix(1 0 0 -1 182.199 152.227)" fill="white" fill-opacity="0.15"/>
<path d="M186.077 140.227L182.619 130.357H183.823L186.609 138.547L189.465 130.357H190.389L193.217 138.617L196.059 130.357H197.207L193.749 140.227H192.727L189.913 132.107L187.071 140.227H186.077ZM198.671 140.227V130.357H199.805V134.543C200.029 134.132 200.342 133.824 200.743 133.619C201.154 133.404 201.611 133.297 202.115 133.297C203.73 133.297 204.537 134.193 204.537 135.985V140.227H203.403V136.055C203.403 135.42 203.277 134.958 203.025 134.669C202.783 134.37 202.391 134.221 201.849 134.221C201.224 134.221 200.725 134.417 200.351 134.809C199.987 135.192 199.805 135.705 199.805 136.349V140.227H198.671ZM208.77 140.353C208.304 140.353 207.884 140.264 207.51 140.087C207.146 139.9 206.857 139.648 206.642 139.331C206.428 139.014 206.32 138.659 206.32 138.267C206.32 137.772 206.446 137.38 206.698 137.091C206.96 136.802 207.384 136.596 207.972 136.475C208.57 136.344 209.382 136.279 210.408 136.279H210.856V135.845C210.856 135.266 210.735 134.851 210.492 134.599C210.259 134.338 209.881 134.207 209.358 134.207C208.948 134.207 208.551 134.268 208.168 134.389C207.786 134.501 207.394 134.688 206.992 134.949L206.6 134.123C206.955 133.871 207.384 133.67 207.888 133.521C208.402 133.372 208.892 133.297 209.358 133.297C210.236 133.297 210.884 133.512 211.304 133.941C211.734 134.37 211.948 135.038 211.948 135.943V140.227H210.884V139.051C210.707 139.452 210.432 139.77 210.058 140.003C209.694 140.236 209.265 140.353 208.77 140.353ZM208.952 139.499C209.512 139.499 209.97 139.308 210.324 138.925C210.679 138.533 210.856 138.038 210.856 137.441V137.021H210.422C209.666 137.021 209.069 137.058 208.63 137.133C208.201 137.198 207.898 137.32 207.72 137.497C207.552 137.665 207.468 137.898 207.468 138.197C207.468 138.58 207.599 138.892 207.86 139.135C208.131 139.378 208.495 139.499 208.952 139.499ZM216.782 140.353C215.98 140.353 215.378 140.143 214.976 139.723C214.575 139.294 214.374 138.678 214.374 137.875V134.305H213.044V133.423H214.374V131.337H215.508V133.423H217.664V134.305H215.508V137.763C215.508 138.295 215.62 138.701 215.844 138.981C216.068 139.252 216.432 139.387 216.936 139.387C217.086 139.387 217.235 139.368 217.384 139.331C217.534 139.294 217.669 139.256 217.79 139.219L217.986 140.087C217.865 140.152 217.688 140.213 217.454 140.269C217.221 140.325 216.997 140.353 216.782 140.353ZM222.403 131.729V130.455H223.803V131.729H222.403ZM222.543 140.227V133.423H223.677V140.227H222.543ZM228.092 140.353C227.56 140.353 227.056 140.278 226.58 140.129C226.104 139.98 225.712 139.77 225.404 139.499L225.768 138.701C226.104 138.972 226.473 139.172 226.874 139.303C227.285 139.424 227.7 139.485 228.12 139.485C228.652 139.485 229.054 139.387 229.324 139.191C229.595 138.995 229.73 138.729 229.73 138.393C229.73 138.132 229.642 137.926 229.464 137.777C229.287 137.618 229.007 137.497 228.624 137.413L227.35 137.133C226.193 136.881 225.614 136.284 225.614 135.341C225.614 134.725 225.857 134.23 226.342 133.857C226.837 133.484 227.481 133.297 228.274 133.297C228.741 133.297 229.184 133.372 229.604 133.521C230.034 133.661 230.388 133.871 230.668 134.151L230.29 134.949C230.02 134.697 229.702 134.506 229.338 134.375C228.984 134.235 228.629 134.165 228.274 134.165C227.752 134.165 227.355 134.268 227.084 134.473C226.814 134.678 226.678 134.949 226.678 135.285C226.678 135.808 227.024 136.144 227.714 136.293L228.988 136.559C229.586 136.69 230.038 136.9 230.346 137.189C230.654 137.469 230.808 137.852 230.808 138.337C230.808 138.962 230.561 139.457 230.066 139.821C229.572 140.176 228.914 140.353 228.092 140.353ZM236.916 142.747L238.078 140.115L235.208 133.423H236.44L238.694 138.939L240.962 133.423H242.152L238.106 142.747H236.916ZM246.056 140.353C245.393 140.353 244.819 140.208 244.334 139.919C243.849 139.63 243.471 139.224 243.2 138.701C242.939 138.169 242.808 137.544 242.808 136.825C242.808 136.106 242.939 135.486 243.2 134.963C243.471 134.431 243.849 134.02 244.334 133.731C244.819 133.442 245.393 133.297 246.056 133.297C246.709 133.297 247.279 133.442 247.764 133.731C248.259 134.02 248.637 134.431 248.898 134.963C249.169 135.486 249.304 136.106 249.304 136.825C249.304 137.544 249.169 138.169 248.898 138.701C248.637 139.224 248.259 139.63 247.764 139.919C247.279 140.208 246.709 140.353 246.056 140.353ZM246.056 139.443C246.691 139.443 247.199 139.219 247.582 138.771C247.965 138.314 248.156 137.665 248.156 136.825C248.156 135.976 247.965 135.327 247.582 134.879C247.199 134.431 246.691 134.207 246.056 134.207C245.412 134.207 244.899 134.431 244.516 134.879C244.143 135.327 243.956 135.976 243.956 136.825C243.956 137.665 244.143 138.314 244.516 138.771C244.899 139.219 245.412 139.443 246.056 139.443ZM253.415 140.353C251.782 140.353 250.965 139.452 250.965 137.651V133.423H252.099V137.637C252.099 138.244 252.221 138.692 252.463 138.981C252.715 139.27 253.107 139.415 253.639 139.415C254.218 139.415 254.689 139.224 255.053 138.841C255.417 138.449 255.599 137.931 255.599 137.287V133.423H256.733V140.227H255.627V139.079C255.413 139.49 255.109 139.807 254.717 140.031C254.335 140.246 253.901 140.353 253.415 140.353ZM258.855 140.227V133.423H259.961V134.641C260.325 133.82 261.072 133.367 262.201 133.283L262.607 133.241L262.691 134.221L261.977 134.305C261.333 134.361 260.843 134.566 260.507 134.921C260.171 135.266 260.003 135.742 260.003 136.349V140.227H258.855ZM267.468 140.227V133.423H268.574V134.585C268.798 134.156 269.116 133.834 269.526 133.619C269.937 133.404 270.399 133.297 270.912 133.297C272.527 133.297 273.334 134.193 273.334 135.985V140.227H272.2V136.055C272.2 135.42 272.074 134.958 271.822 134.669C271.58 134.37 271.188 134.221 270.646 134.221C270.021 134.221 269.522 134.417 269.148 134.809C268.784 135.192 268.602 135.705 268.602 136.349V140.227H267.468ZM277.567 140.353C277.101 140.353 276.681 140.264 276.307 140.087C275.943 139.9 275.654 139.648 275.439 139.331C275.225 139.014 275.117 138.659 275.117 138.267C275.117 137.772 275.243 137.38 275.495 137.091C275.757 136.802 276.181 136.596 276.769 136.475C277.367 136.344 278.179 136.279 279.205 136.279H279.653V135.845C279.653 135.266 279.532 134.851 279.289 134.599C279.056 134.338 278.678 134.207 278.155 134.207C277.745 134.207 277.348 134.268 276.965 134.389C276.583 134.501 276.191 134.688 275.789 134.949L275.397 134.123C275.752 133.871 276.181 133.67 276.685 133.521C277.199 133.372 277.689 133.297 278.155 133.297C279.033 133.297 279.681 133.512 280.101 133.941C280.531 134.37 280.745 135.038 280.745 135.943V140.227H279.681V139.051C279.504 139.452 279.229 139.77 278.855 140.003C278.491 140.236 278.062 140.353 277.567 140.353ZM277.749 139.499C278.309 139.499 278.767 139.308 279.121 138.925C279.476 138.533 279.653 138.038 279.653 137.441V137.021H279.219C278.463 137.021 277.866 137.058 277.427 137.133C276.998 137.198 276.695 137.32 276.517 137.497C276.349 137.665 276.265 137.898 276.265 138.197C276.265 138.58 276.396 138.892 276.657 139.135C276.928 139.378 277.292 139.499 277.749 139.499ZM282.877 140.227V133.423H283.983V134.571C284.188 134.16 284.473 133.848 284.837 133.633C285.201 133.409 285.626 133.297 286.111 133.297C287.175 133.297 287.856 133.759 288.155 134.683C288.36 134.254 288.664 133.918 289.065 133.675C289.466 133.423 289.928 133.297 290.451 133.297C291.963 133.297 292.719 134.193 292.719 135.985V140.227H291.585V136.041C291.585 135.416 291.473 134.958 291.249 134.669C291.034 134.37 290.675 134.221 290.171 134.221C289.62 134.221 289.182 134.417 288.855 134.809C288.528 135.201 288.365 135.724 288.365 136.377V140.227H287.231V136.041C287.231 135.416 287.119 134.958 286.895 134.669C286.68 134.37 286.321 134.221 285.817 134.221C285.257 134.221 284.814 134.417 284.487 134.809C284.17 135.201 284.011 135.724 284.011 136.377V140.227H282.877ZM297.905 140.353C296.832 140.353 295.983 140.04 295.357 139.415C294.732 138.78 294.419 137.922 294.419 136.839C294.419 136.139 294.559 135.523 294.839 134.991C295.119 134.45 295.502 134.034 295.987 133.745C296.482 133.446 297.051 133.297 297.695 133.297C298.619 133.297 299.343 133.596 299.865 134.193C300.388 134.781 300.649 135.593 300.649 136.629V137.063H295.525C295.563 137.838 295.787 138.43 296.197 138.841C296.608 139.242 297.177 139.443 297.905 139.443C298.316 139.443 298.708 139.382 299.081 139.261C299.455 139.13 299.809 138.92 300.145 138.631L300.537 139.429C300.229 139.718 299.837 139.947 299.361 140.115C298.885 140.274 298.4 140.353 297.905 140.353ZM297.723 134.137C297.079 134.137 296.571 134.338 296.197 134.739C295.824 135.14 295.605 135.668 295.539 136.321H299.669C299.641 135.63 299.459 135.094 299.123 134.711C298.797 134.328 298.33 134.137 297.723 134.137ZM302.109 134.851V133.423H303.537V134.851H302.109ZM302.109 140.227V138.799H303.537V140.227H302.109Z" fill="white"/>
<path d="M183.33 120.227V111.062H184.162L189.687 118.433V111.062H190.675V120.227H189.869L184.331 112.83V120.227H183.33ZM194.799 120.344C194.366 120.344 193.976 120.262 193.629 120.097C193.291 119.924 193.023 119.69 192.823 119.395C192.624 119.1 192.524 118.771 192.524 118.407C192.524 117.948 192.641 117.584 192.875 117.315C193.118 117.046 193.512 116.856 194.058 116.743C194.613 116.622 195.367 116.561 196.32 116.561H196.736V116.158C196.736 115.621 196.624 115.235 196.398 115.001C196.182 114.758 195.831 114.637 195.345 114.637C194.964 114.637 194.596 114.693 194.24 114.806C193.885 114.91 193.521 115.083 193.148 115.326L192.784 114.559C193.114 114.325 193.512 114.139 193.98 114C194.457 113.861 194.912 113.792 195.345 113.792C196.16 113.792 196.762 113.991 197.152 114.39C197.551 114.789 197.75 115.408 197.75 116.249V120.227H196.762V119.135C196.598 119.508 196.342 119.802 195.995 120.019C195.657 120.236 195.259 120.344 194.799 120.344ZM194.968 119.551C195.488 119.551 195.913 119.373 196.242 119.018C196.572 118.654 196.736 118.195 196.736 117.64V117.25H196.333C195.631 117.25 195.077 117.285 194.669 117.354C194.271 117.415 193.989 117.527 193.824 117.692C193.668 117.848 193.59 118.065 193.59 118.342C193.59 118.697 193.712 118.988 193.954 119.213C194.206 119.438 194.544 119.551 194.968 119.551ZM199.73 120.227V113.909H200.757V114.975C200.947 114.594 201.212 114.303 201.55 114.104C201.888 113.896 202.282 113.792 202.733 113.792C203.721 113.792 204.353 114.221 204.631 115.079C204.821 114.68 205.103 114.368 205.476 114.143C205.848 113.909 206.277 113.792 206.763 113.792C208.167 113.792 208.869 114.624 208.869 116.288V120.227H207.816V116.34C207.816 115.759 207.712 115.335 207.504 115.066C207.304 114.789 206.971 114.65 206.503 114.65C205.991 114.65 205.584 114.832 205.281 115.196C204.977 115.56 204.826 116.045 204.826 116.652V120.227H203.773V116.34C203.773 115.759 203.669 115.335 203.461 115.066C203.261 114.789 202.928 114.65 202.46 114.65C201.94 114.65 201.528 114.832 201.225 115.196C200.93 115.56 200.783 116.045 200.783 116.652V120.227H199.73ZM213.685 120.344C212.688 120.344 211.899 120.054 211.319 119.473C210.738 118.884 210.448 118.086 210.448 117.081C210.448 116.431 210.578 115.859 210.838 115.365C211.098 114.862 211.453 114.477 211.904 114.208C212.363 113.931 212.892 113.792 213.49 113.792C214.348 113.792 215.019 114.069 215.505 114.624C215.99 115.17 216.233 115.924 216.233 116.886V117.289H211.475C211.509 118.008 211.717 118.559 212.099 118.94C212.48 119.313 213.009 119.499 213.685 119.499C214.066 119.499 214.43 119.443 214.777 119.33C215.123 119.209 215.453 119.014 215.765 118.745L216.129 119.486C215.843 119.755 215.479 119.967 215.037 120.123C214.595 120.27 214.144 120.344 213.685 120.344ZM213.516 114.572C212.918 114.572 212.445 114.758 212.099 115.131C211.752 115.504 211.548 115.993 211.488 116.6H215.323C215.297 115.959 215.128 115.46 214.816 115.105C214.512 114.75 214.079 114.572 213.516 114.572Z" fill="white" fill-opacity="0.5"/>
<rect width="516.818" height="1" transform="matrix(1 0 0 -1 182.199 245.989)" fill="white" fill-opacity="0.15"/>
<path d="M183.417 233.989V224.119H184.565V233.989H183.417ZM192.247 233.989L189.713 227.185H190.903L192.821 232.659L194.809 227.185H195.775L197.735 232.673L199.681 227.185H200.815L198.267 233.989H197.189L195.271 228.711L193.339 233.989H192.247ZM204.218 234.115C203.751 234.115 203.331 234.026 202.958 233.849C202.594 233.662 202.304 233.41 202.09 233.093C201.875 232.775 201.768 232.421 201.768 232.029C201.768 231.534 201.894 231.142 202.146 230.853C202.407 230.563 202.832 230.358 203.42 230.237C204.017 230.106 204.829 230.041 205.856 230.041H206.304V229.607C206.304 229.028 206.182 228.613 205.94 228.361C205.706 228.099 205.328 227.969 204.806 227.969C204.395 227.969 203.998 228.029 203.616 228.151C203.233 228.263 202.841 228.449 202.44 228.711L202.048 227.885C202.402 227.633 202.832 227.432 203.336 227.283C203.849 227.133 204.339 227.059 204.806 227.059C205.683 227.059 206.332 227.273 206.752 227.703C207.181 228.132 207.396 228.799 207.396 229.705V233.989H206.332V232.813C206.154 233.214 205.879 233.531 205.506 233.765C205.142 233.998 204.712 234.115 204.218 234.115ZM204.4 233.261C204.96 233.261 205.417 233.069 205.772 232.687C206.126 232.295 206.304 231.8 206.304 231.203V230.783H205.87C205.114 230.783 204.516 230.82 204.078 230.895C203.648 230.96 203.345 231.081 203.168 231.259C203 231.427 202.916 231.66 202.916 231.959C202.916 232.341 203.046 232.654 203.308 232.897C203.578 233.139 203.942 233.261 204.4 233.261ZM209.5 233.989V227.185H210.606V228.347C210.83 227.917 211.147 227.595 211.558 227.381C211.968 227.166 212.43 227.059 212.944 227.059C214.558 227.059 215.366 227.955 215.366 229.747V233.989H214.232V229.817C214.232 229.182 214.106 228.72 213.854 228.431C213.611 228.132 213.219 227.983 212.678 227.983C212.052 227.983 211.553 228.179 211.18 228.571C210.816 228.953 210.634 229.467 210.634 230.111V233.989H209.5ZM220.187 234.115C219.384 234.115 218.782 233.905 218.381 233.485C217.979 233.055 217.779 232.439 217.779 231.637V228.067H216.449V227.185H217.779V225.099H218.913V227.185H221.069V228.067H218.913V231.525C218.913 232.057 219.025 232.463 219.249 232.743C219.473 233.013 219.837 233.149 220.341 233.149C220.49 233.149 220.639 233.13 220.789 233.093C220.938 233.055 221.073 233.018 221.195 232.981L221.391 233.849C221.269 233.914 221.092 233.975 220.859 234.031C220.625 234.087 220.401 234.115 220.187 234.115ZM228.677 234.115C227.874 234.115 227.272 233.905 226.871 233.485C226.469 233.055 226.269 232.439 226.269 231.637V228.067H224.939V227.185H226.269V225.099H227.403V227.185H229.559V228.067H227.403V231.525C227.403 232.057 227.515 232.463 227.739 232.743C227.963 233.013 228.327 233.149 228.831 233.149C228.98 233.149 229.129 233.13 229.279 233.093C229.428 233.055 229.563 233.018 229.685 232.981L229.881 233.849C229.759 233.914 229.582 233.975 229.349 234.031C229.115 234.087 228.891 234.115 228.677 234.115ZM233.601 234.115C232.938 234.115 232.364 233.97 231.879 233.681C231.394 233.391 231.016 232.985 230.745 232.463C230.484 231.931 230.353 231.305 230.353 230.587C230.353 229.868 230.484 229.247 230.745 228.725C231.016 228.193 231.394 227.782 231.879 227.493C232.364 227.203 232.938 227.059 233.601 227.059C234.254 227.059 234.824 227.203 235.309 227.493C235.804 227.782 236.182 228.193 236.443 228.725C236.714 229.247 236.849 229.868 236.849 230.587C236.849 231.305 236.714 231.931 236.443 232.463C236.182 232.985 235.804 233.391 235.309 233.681C234.824 233.97 234.254 234.115 233.601 234.115ZM233.601 233.205C234.236 233.205 234.744 232.981 235.127 232.533C235.51 232.075 235.701 231.427 235.701 230.587C235.701 229.737 235.51 229.089 235.127 228.641C234.744 228.193 234.236 227.969 233.601 227.969C232.957 227.969 232.444 228.193 232.061 228.641C231.688 229.089 231.501 229.737 231.501 230.587C231.501 231.427 231.688 232.075 232.061 232.533C232.444 232.981 232.957 233.205 233.601 233.205ZM242.148 233.989V224.119H243.282V230.209H243.31L246.46 227.185H247.902L244.486 230.461L248.196 233.989H246.754L243.31 230.797H243.282V233.989H242.148ZM249.148 233.989V227.185H250.254V228.347C250.478 227.917 250.795 227.595 251.206 227.381C251.617 227.166 252.079 227.059 252.592 227.059C254.207 227.059 255.014 227.955 255.014 229.747V233.989H253.88V229.817C253.88 229.182 253.754 228.72 253.502 228.431C253.259 228.132 252.867 227.983 252.326 227.983C251.701 227.983 251.201 228.179 250.828 228.571C250.464 228.953 250.282 229.467 250.282 230.111V233.989H249.148ZM259.933 234.115C259.27 234.115 258.696 233.97 258.211 233.681C257.726 233.391 257.348 232.985 257.077 232.463C256.816 231.931 256.685 231.305 256.685 230.587C256.685 229.868 256.816 229.247 257.077 228.725C257.348 228.193 257.726 227.782 258.211 227.493C258.696 227.203 259.27 227.059 259.933 227.059C260.586 227.059 261.156 227.203 261.641 227.493C262.136 227.782 262.514 228.193 262.775 228.725C263.046 229.247 263.181 229.868 263.181 230.587C263.181 231.305 263.046 231.931 262.775 232.463C262.514 232.985 262.136 233.391 261.641 233.681C261.156 233.97 260.586 234.115 259.933 234.115ZM259.933 233.205C260.568 233.205 261.076 232.981 261.459 232.533C261.842 232.075 262.033 231.427 262.033 230.587C262.033 229.737 261.842 229.089 261.459 228.641C261.076 228.193 260.568 227.969 259.933 227.969C259.289 227.969 258.776 228.193 258.393 228.641C258.02 229.089 257.833 229.737 257.833 230.587C257.833 231.427 258.02 232.075 258.393 232.533C258.776 232.981 259.289 233.205 259.933 233.205ZM266.595 233.989L264.061 227.185H265.251L267.169 232.659L269.157 227.185H270.123L272.083 232.673L274.029 227.185H275.163L272.615 233.989H271.537L269.619 228.711L267.687 233.989H266.595ZM276.378 228.613V227.185H277.806V228.613H276.378ZM276.378 233.989V232.561H277.806V233.989H276.378Z" fill="white"/>
<path d="M189.713 216.602L188.621 214.847C188.327 214.353 187.846 214.106 187.178 214.106C186.329 214.106 185.588 213.915 184.955 213.534C184.331 213.144 183.846 212.598 183.499 211.896C183.161 211.194 182.992 210.362 182.992 209.4C182.992 208.438 183.161 207.606 183.499 206.904C183.837 206.202 184.318 205.66 184.942 205.279C185.575 204.897 186.32 204.707 187.178 204.707C188.045 204.707 188.79 204.897 189.414 205.279C190.047 205.66 190.532 206.202 190.87 206.904C191.217 207.597 191.39 208.425 191.39 209.387C191.39 210.505 191.161 211.449 190.701 212.221C190.242 212.983 189.605 213.521 188.79 213.833C189.137 213.945 189.453 214.244 189.739 214.73L190.61 216.134L189.713 216.602ZM187.178 213.157C188.158 213.157 188.916 212.827 189.453 212.169C189.991 211.51 190.259 210.587 190.259 209.4C190.259 208.212 189.991 207.294 189.453 206.644C188.916 205.985 188.158 205.656 187.178 205.656C186.216 205.656 185.467 205.985 184.929 206.644C184.392 207.294 184.123 208.212 184.123 209.4C184.123 210.578 184.392 211.501 184.929 212.169C185.467 212.827 186.216 213.157 187.178 213.157ZM195.389 214.106C193.872 214.106 193.114 213.269 193.114 211.597V207.671H194.167V211.584C194.167 212.147 194.28 212.563 194.505 212.832C194.739 213.1 195.103 213.235 195.597 213.235C196.134 213.235 196.572 213.057 196.91 212.702C197.248 212.338 197.417 211.857 197.417 211.259V207.671H198.47V213.989H197.443V212.923C197.244 213.304 196.962 213.599 196.598 213.807C196.243 214.006 195.84 214.106 195.389 214.106ZM203.287 214.106C202.29 214.106 201.502 213.815 200.921 213.235C200.34 212.645 200.05 211.848 200.05 210.843C200.05 210.193 200.18 209.621 200.44 209.127C200.7 208.624 201.055 208.238 201.506 207.97C201.965 207.692 202.494 207.554 203.092 207.554C203.95 207.554 204.622 207.831 205.107 208.386C205.592 208.932 205.835 209.686 205.835 210.648V211.051H201.077C201.112 211.77 201.32 212.32 201.701 212.702C202.082 213.074 202.611 213.261 203.287 213.261C203.668 213.261 204.032 213.204 204.379 213.092C204.726 212.97 205.055 212.775 205.367 212.507L205.731 213.248C205.445 213.516 205.081 213.729 204.639 213.885C204.197 214.032 203.746 214.106 203.287 214.106ZM203.118 208.334C202.52 208.334 202.048 208.52 201.701 208.893C201.354 209.265 201.151 209.755 201.09 210.362H204.925C204.899 209.72 204.73 209.222 204.418 208.867C204.115 208.511 203.681 208.334 203.118 208.334ZM209.491 214.106C208.997 214.106 208.529 214.036 208.087 213.898C207.645 213.759 207.281 213.564 206.995 213.313L207.333 212.572C207.645 212.823 207.987 213.009 208.36 213.131C208.741 213.243 209.127 213.3 209.517 213.3C210.011 213.3 210.384 213.209 210.635 213.027C210.886 212.845 211.012 212.598 211.012 212.286C211.012 212.043 210.93 211.852 210.765 211.714C210.6 211.566 210.34 211.454 209.985 211.376L208.802 211.116C207.727 210.882 207.19 210.327 207.19 209.452C207.19 208.88 207.415 208.42 207.866 208.074C208.325 207.727 208.923 207.554 209.66 207.554C210.093 207.554 210.505 207.623 210.895 207.762C211.294 207.892 211.623 208.087 211.883 208.347L211.532 209.088C211.281 208.854 210.986 208.676 210.648 208.555C210.319 208.425 209.989 208.36 209.66 208.36C209.175 208.36 208.806 208.455 208.555 208.646C208.304 208.836 208.178 209.088 208.178 209.4C208.178 209.885 208.499 210.197 209.14 210.336L210.323 210.583C210.878 210.704 211.298 210.899 211.584 211.168C211.87 211.428 212.013 211.783 212.013 212.234C212.013 212.814 211.783 213.274 211.324 213.612C210.865 213.941 210.254 214.106 209.491 214.106ZM216.089 214.106C215.344 214.106 214.785 213.911 214.412 213.521C214.04 213.122 213.853 212.55 213.853 211.805V208.49H212.618V207.671H213.853V205.734H214.906V207.671H216.908V208.49H214.906V211.701C214.906 212.195 215.01 212.572 215.218 212.832C215.426 213.083 215.764 213.209 216.232 213.209C216.371 213.209 216.51 213.191 216.648 213.157C216.787 213.122 216.913 213.087 217.025 213.053L217.207 213.859C217.095 213.919 216.93 213.976 216.713 214.028C216.497 214.08 216.289 214.106 216.089 214.106ZM217.969 206.098V204.915H219.269V206.098H217.969ZM218.099 213.989V207.671H219.152V213.989H218.099ZM223.747 214.106C223.131 214.106 222.598 213.971 222.148 213.703C221.697 213.434 221.346 213.057 221.095 212.572C220.852 212.078 220.731 211.497 220.731 210.83C220.731 210.162 220.852 209.586 221.095 209.101C221.346 208.607 221.697 208.225 222.148 207.957C222.598 207.688 223.131 207.554 223.747 207.554C224.353 207.554 224.882 207.688 225.333 207.957C225.792 208.225 226.143 208.607 226.386 209.101C226.637 209.586 226.763 210.162 226.763 210.83C226.763 211.497 226.637 212.078 226.386 212.572C226.143 213.057 225.792 213.434 225.333 213.703C224.882 213.971 224.353 214.106 223.747 214.106ZM223.747 213.261C224.336 213.261 224.808 213.053 225.164 212.637C225.519 212.212 225.697 211.61 225.697 210.83C225.697 210.041 225.519 209.439 225.164 209.023C224.808 208.607 224.336 208.399 223.747 208.399C223.149 208.399 222.672 208.607 222.317 209.023C221.97 209.439 221.797 210.041 221.797 210.83C221.797 211.61 221.97 212.212 222.317 212.637C222.672 213.053 223.149 213.261 223.747 213.261ZM228.344 213.989V207.671H229.371V208.75C229.579 208.351 229.874 208.052 230.255 207.853C230.637 207.653 231.066 207.554 231.542 207.554C233.042 207.554 233.791 208.386 233.791 210.05V213.989H232.738V210.115C232.738 209.525 232.621 209.096 232.387 208.828C232.162 208.55 231.798 208.412 231.295 208.412C230.715 208.412 230.251 208.594 229.904 208.958C229.566 209.313 229.397 209.79 229.397 210.388V213.989H228.344Z" fill="white" fill-opacity="0.5"/>
<rect width="231" height="1" transform="matrix(1 0 0 -1 471.199 152.227)" fill="white" fill-opacity="0.15"/>
<path d="M474.797 140.227V135.551L471.017 130.357H472.361L475.399 134.543L478.423 130.357H479.725L475.945 135.579V140.227H474.797ZM482.324 140.353C481.661 140.353 481.087 140.208 480.602 139.919C480.116 139.63 479.738 139.224 479.468 138.701C479.206 138.169 479.076 137.544 479.076 136.825C479.076 136.106 479.206 135.486 479.468 134.963C479.738 134.431 480.116 134.02 480.602 133.731C481.087 133.442 481.661 133.297 482.324 133.297C482.977 133.297 483.546 133.442 484.032 133.731C484.526 134.02 484.904 134.431 485.166 134.963C485.436 135.486 485.572 136.106 485.572 136.825C485.572 137.544 485.436 138.169 485.166 138.701C484.904 139.224 484.526 139.63 484.032 139.919C483.546 140.208 482.977 140.353 482.324 140.353ZM482.324 139.443C482.958 139.443 483.467 139.219 483.85 138.771C484.232 138.314 484.424 137.665 484.424 136.825C484.424 135.976 484.232 135.327 483.85 134.879C483.467 134.431 482.958 134.207 482.324 134.207C481.68 134.207 481.166 134.431 480.784 134.879C480.41 135.327 480.224 135.976 480.224 136.825C480.224 137.665 480.41 138.314 480.784 138.771C481.166 139.219 481.68 139.443 482.324 139.443ZM489.683 140.353C488.05 140.353 487.233 139.452 487.233 137.651V133.423H488.367V137.637C488.367 138.244 488.488 138.692 488.731 138.981C488.983 139.27 489.375 139.415 489.907 139.415C490.486 139.415 490.957 139.224 491.321 138.841C491.685 138.449 491.867 137.931 491.867 137.287V133.423H493.001V140.227H491.895V139.079C491.68 139.49 491.377 139.807 490.985 140.031C490.602 140.246 490.168 140.353 489.683 140.353ZM495.123 140.227V133.423H496.229V134.641C496.593 133.82 497.339 133.367 498.469 133.283L498.875 133.241L498.959 134.221L498.245 134.305C497.601 134.361 497.111 134.566 496.775 134.921C496.439 135.266 496.271 135.742 496.271 136.349V140.227H495.123ZM503.736 142.747V133.423H504.842V134.641C505.047 134.221 505.351 133.894 505.752 133.661C506.163 133.418 506.639 133.297 507.18 133.297C507.787 133.297 508.314 133.442 508.762 133.731C509.219 134.011 509.569 134.417 509.812 134.949C510.064 135.472 510.19 136.097 510.19 136.825C510.19 137.544 510.064 138.169 509.812 138.701C509.569 139.224 509.219 139.63 508.762 139.919C508.314 140.208 507.787 140.353 507.18 140.353C506.657 140.353 506.191 140.236 505.78 140.003C505.369 139.77 505.066 139.448 504.87 139.037V142.747H503.736ZM506.942 139.443C507.577 139.443 508.085 139.219 508.468 138.771C508.851 138.314 509.042 137.665 509.042 136.825C509.042 135.976 508.851 135.327 508.468 134.879C508.085 134.431 507.577 134.207 506.942 134.207C506.307 134.207 505.799 134.431 505.416 134.879C505.033 135.327 504.842 135.976 504.842 136.825C504.842 137.665 505.033 138.314 505.416 138.771C505.799 139.219 506.307 139.443 506.942 139.443ZM511.898 140.227V130.357H513.032V134.543C513.256 134.132 513.569 133.824 513.97 133.619C514.381 133.404 514.838 133.297 515.342 133.297C516.957 133.297 517.764 134.193 517.764 135.985V140.227H516.63V136.055C516.63 135.42 516.504 134.958 516.252 134.669C516.009 134.37 515.617 134.221 515.076 134.221C514.451 134.221 513.951 134.417 513.578 134.809C513.214 135.192 513.032 135.705 513.032 136.349V140.227H511.898ZM522.683 140.353C522.02 140.353 521.446 140.208 520.961 139.919C520.476 139.63 520.098 139.224 519.827 138.701C519.566 138.169 519.435 137.544 519.435 136.825C519.435 136.106 519.566 135.486 519.827 134.963C520.098 134.431 520.476 134.02 520.961 133.731C521.446 133.442 522.02 133.297 522.683 133.297C523.336 133.297 523.906 133.442 524.391 133.731C524.886 134.02 525.264 134.431 525.525 134.963C525.796 135.486 525.931 136.106 525.931 136.825C525.931 137.544 525.796 138.169 525.525 138.701C525.264 139.224 524.886 139.63 524.391 139.919C523.906 140.208 523.336 140.353 522.683 140.353ZM522.683 139.443C523.318 139.443 523.826 139.219 524.209 138.771C524.592 138.314 524.783 137.665 524.783 136.825C524.783 135.976 524.592 135.327 524.209 134.879C523.826 134.431 523.318 134.207 522.683 134.207C522.039 134.207 521.526 134.431 521.143 134.879C520.77 135.327 520.583 135.976 520.583 136.825C520.583 137.665 520.77 138.314 521.143 138.771C521.526 139.219 522.039 139.443 522.683 139.443ZM527.634 140.227V133.423H528.74V134.585C528.964 134.156 529.282 133.834 529.692 133.619C530.103 133.404 530.565 133.297 531.078 133.297C532.693 133.297 533.5 134.193 533.5 135.985V140.227H532.366V136.055C532.366 135.42 532.24 134.958 531.988 134.669C531.746 134.37 531.354 134.221 530.812 134.221C530.187 134.221 529.688 134.417 529.314 134.809C528.95 135.192 528.768 135.705 528.768 136.349V140.227H527.634ZM538.657 140.353C537.584 140.353 536.735 140.04 536.109 139.415C535.484 138.78 535.171 137.922 535.171 136.839C535.171 136.139 535.311 135.523 535.591 134.991C535.871 134.45 536.254 134.034 536.739 133.745C537.234 133.446 537.803 133.297 538.447 133.297C539.371 133.297 540.095 133.596 540.617 134.193C541.14 134.781 541.401 135.593 541.401 136.629V137.063H536.277C536.315 137.838 536.539 138.43 536.949 138.841C537.36 139.242 537.929 139.443 538.657 139.443C539.068 139.443 539.46 139.382 539.833 139.261C540.207 139.13 540.561 138.92 540.897 138.631L541.289 139.429C540.981 139.718 540.589 139.947 540.113 140.115C539.637 140.274 539.152 140.353 538.657 140.353ZM538.475 134.137C537.831 134.137 537.323 134.338 536.949 134.739C536.576 135.14 536.357 135.668 536.291 136.321H540.421C540.393 135.63 540.211 135.094 539.875 134.711C539.549 134.328 539.082 134.137 538.475 134.137ZM546.638 140.227V133.423H547.744V134.585C547.968 134.156 548.286 133.834 548.696 133.619C549.107 133.404 549.569 133.297 550.082 133.297C551.697 133.297 552.504 134.193 552.504 135.985V140.227H551.37V136.055C551.37 135.42 551.244 134.958 550.992 134.669C550.75 134.37 550.358 134.221 549.816 134.221C549.191 134.221 548.692 134.417 548.318 134.809C547.954 135.192 547.772 135.705 547.772 136.349V140.227H546.638ZM557.003 140.353C555.37 140.353 554.553 139.452 554.553 137.651V133.423H555.687V137.637C555.687 138.244 555.809 138.692 556.051 138.981C556.303 139.27 556.695 139.415 557.227 139.415C557.806 139.415 558.277 139.224 558.641 138.841C559.005 138.449 559.187 137.931 559.187 137.287V133.423H560.321V140.227H559.215V139.079C559.001 139.49 558.697 139.807 558.305 140.031C557.923 140.246 557.489 140.353 557.003 140.353ZM562.471 140.227V133.423H563.577V134.571C563.782 134.16 564.067 133.848 564.431 133.633C564.795 133.409 565.22 133.297 565.705 133.297C566.769 133.297 567.45 133.759 567.749 134.683C567.954 134.254 568.258 133.918 568.659 133.675C569.06 133.423 569.522 133.297 570.045 133.297C571.557 133.297 572.313 134.193 572.313 135.985V140.227H571.179V136.041C571.179 135.416 571.067 134.958 570.843 134.669C570.628 134.37 570.269 134.221 569.765 134.221C569.214 134.221 568.776 134.417 568.449 134.809C568.122 135.201 567.959 135.724 567.959 136.377V140.227H566.825V136.041C566.825 135.416 566.713 134.958 566.489 134.669C566.274 134.37 565.915 134.221 565.411 134.221C564.851 134.221 564.408 134.417 564.081 134.809C563.764 135.201 563.605 135.724 563.605 136.377V140.227H562.471ZM577.877 140.353C577.336 140.353 576.86 140.232 576.449 139.989C576.048 139.746 575.745 139.415 575.539 138.995V140.227H574.433V130.357H575.567V134.599C575.763 134.198 576.067 133.88 576.477 133.647C576.888 133.414 577.355 133.297 577.877 133.297C578.484 133.297 579.011 133.442 579.459 133.731C579.917 134.011 580.267 134.417 580.509 134.949C580.761 135.472 580.887 136.097 580.887 136.825C580.887 137.544 580.761 138.169 580.509 138.701C580.267 139.224 579.917 139.63 579.459 139.919C579.011 140.208 578.484 140.353 577.877 140.353ZM577.639 139.443C578.274 139.443 578.783 139.219 579.165 138.771C579.548 138.314 579.739 137.665 579.739 136.825C579.739 135.976 579.548 135.327 579.165 134.879C578.783 134.431 578.274 134.207 577.639 134.207C577.005 134.207 576.496 134.431 576.113 134.879C575.731 135.327 575.539 135.976 575.539 136.825C575.539 137.665 575.731 138.314 576.113 138.771C576.496 139.219 577.005 139.443 577.639 139.443ZM585.661 140.353C584.588 140.353 583.739 140.04 583.113 139.415C582.488 138.78 582.175 137.922 582.175 136.839C582.175 136.139 582.315 135.523 582.595 134.991C582.875 134.45 583.258 134.034 583.743 133.745C584.238 133.446 584.807 133.297 585.451 133.297C586.375 133.297 587.099 133.596 587.621 134.193C588.144 134.781 588.405 135.593 588.405 136.629V137.063H583.281C583.319 137.838 583.543 138.43 583.953 138.841C584.364 139.242 584.933 139.443 585.661 139.443C586.072 139.443 586.464 139.382 586.837 139.261C587.211 139.13 587.565 138.92 587.901 138.631L588.293 139.429C587.985 139.718 587.593 139.947 587.117 140.115C586.641 140.274 586.156 140.353 585.661 140.353ZM585.479 134.137C584.835 134.137 584.327 134.338 583.953 134.739C583.58 135.14 583.361 135.668 583.295 136.321H587.425C587.397 135.63 587.215 135.094 586.879 134.711C586.553 134.328 586.086 134.137 585.479 134.137ZM590.046 140.227V133.423H591.152V134.641C591.516 133.82 592.263 133.367 593.392 133.283L593.798 133.241L593.882 134.221L593.168 134.305C592.524 134.361 592.034 134.566 591.698 134.921C591.362 135.266 591.194 135.742 591.194 136.349V140.227H590.046ZM595.046 134.851V133.423H596.474V134.851H595.046ZM595.046 140.227V138.799H596.474V140.227H595.046Z" fill="white"/>
<path d="M472.339 120.254L472.328 111.089L475.955 111.085C476.943 111.084 477.697 111.321 478.218 111.797C478.747 112.273 479.012 112.953 479.013 113.837C479.014 114.713 478.75 115.393 478.222 115.879C477.703 116.357 476.949 116.596 475.961 116.597L473.4 116.6L473.405 120.253L472.339 120.254ZM473.399 115.703L475.83 115.7C477.251 115.698 477.961 115.078 477.96 113.839C477.958 112.591 477.247 111.967 475.826 111.969L473.395 111.972L473.399 115.703ZM480.422 120.245L480.411 111.08L481.464 111.078L481.469 114.965C481.676 114.584 481.966 114.297 482.339 114.106C482.72 113.907 483.144 113.806 483.612 113.806C485.112 113.804 485.862 114.635 485.864 116.299L485.869 120.238L484.816 120.239L484.812 116.365C484.811 115.776 484.693 115.347 484.459 115.079C484.233 114.802 483.869 114.664 483.366 114.664C482.786 114.665 482.322 114.847 481.976 115.212C481.639 115.568 481.47 116.044 481.471 116.642L481.475 120.243L480.422 120.245ZM490.437 120.35C489.822 120.35 489.288 120.217 488.837 119.949C488.386 119.68 488.035 119.304 487.783 118.819C487.54 118.325 487.418 117.745 487.417 117.077C487.416 116.41 487.537 115.833 487.779 115.348C488.03 114.854 488.38 114.472 488.831 114.203C489.281 113.933 489.814 113.798 490.429 113.798C491.036 113.797 491.565 113.931 492.016 114.199C492.475 114.467 492.827 114.848 493.07 115.342C493.322 115.827 493.448 116.403 493.449 117.07C493.45 117.737 493.325 118.318 493.074 118.813C492.832 119.298 492.481 119.676 492.022 119.945C491.572 120.214 491.044 120.349 490.437 120.35ZM490.436 119.505C491.025 119.504 491.497 119.295 491.852 118.879C492.207 118.454 492.384 117.851 492.383 117.071C492.382 116.283 492.204 115.681 491.848 115.265C491.492 114.849 491.019 114.642 490.43 114.643C489.832 114.643 489.356 114.852 489.001 115.268C488.655 115.685 488.482 116.287 488.483 117.076C488.484 117.856 488.658 118.458 489.005 118.882C489.361 119.298 489.838 119.505 490.436 119.505ZM495.034 120.227L495.027 113.909L496.054 113.908L496.055 114.987C496.263 114.588 496.557 114.289 496.938 114.089C497.319 113.889 497.748 113.789 498.225 113.788C499.724 113.787 500.475 114.618 500.477 116.282L500.481 120.221L499.428 120.222L499.424 116.348C499.423 115.759 499.306 115.33 499.071 115.061C498.846 114.784 498.481 114.646 497.979 114.647C497.398 114.647 496.935 114.83 496.588 115.194C496.251 115.55 496.082 116.027 496.083 116.625L496.087 120.226L495.034 120.227ZM505.27 120.332C504.274 120.333 503.485 120.044 502.903 119.464C502.322 118.875 502.031 118.078 502.029 117.073C502.029 116.423 502.158 115.851 502.417 115.356C502.677 114.853 503.032 114.467 503.482 114.198C503.941 113.92 504.469 113.781 505.067 113.78C505.925 113.779 506.597 114.056 507.083 114.61C507.569 115.155 507.813 115.909 507.814 116.871L507.815 117.274L503.057 117.28C503.092 117.999 503.301 118.549 503.683 118.93C504.064 119.302 504.593 119.488 505.269 119.487C505.651 119.487 506.014 119.43 506.361 119.317C506.708 119.195 507.037 119 507.348 118.731L507.713 119.471C507.428 119.74 507.064 119.953 506.622 120.109C506.18 120.257 505.73 120.332 505.27 120.332ZM505.094 114.56C504.496 114.561 504.024 114.748 503.678 115.121C503.332 115.494 503.129 115.984 503.069 116.591L506.904 116.586C506.877 115.945 506.707 115.447 506.395 115.092C506.091 114.737 505.658 114.56 505.094 114.56Z" fill="white" fill-opacity="0.5"/>
<path d="M326.725 53.3892V53.0892L327.925 52.7892V39.9892L326.725 39.6892V39.3892H332.425V39.6892L331.225 39.9892V46.1892H335.525V39.9892L334.325 39.6892V39.3892H340.025V39.6892L338.825 39.9892V52.7892L340.025 53.0892V53.3892H334.325V53.0892L335.525 52.7892V46.6892H331.225V52.7892L332.425 53.0892V53.3892H326.725ZM340.012 53.0892L341.612 52.4892L347.112 39.1892H347.712L353.412 52.7892L354.412 53.0892V53.3892H352.012C351.319 53.3892 350.752 53.2358 350.312 52.9292C349.872 52.6092 349.545 52.1958 349.332 51.6892L348.312 49.2892H343.532L342.212 52.4892L343.712 53.0892V53.3892H340.012V53.0892ZM343.732 48.7892H348.112L345.912 43.5292L343.732 48.7892ZM353.297 39.9892L352.297 39.6892V39.3892H354.697C355.391 39.3892 355.957 39.5492 356.397 39.8692C356.837 40.1758 357.171 40.5825 357.397 41.0892L360.937 49.1492L364.197 40.2892L362.697 39.6892V39.3892H366.397V39.6892L364.797 40.2892L359.897 53.5892H359.297L353.297 39.9892ZM366.998 53.0892L368.198 52.7892V39.9892L366.998 39.6892V39.3892H377.698V42.9892H377.098C376.845 42.7892 376.625 42.5358 376.438 42.2292C376.011 41.5092 375.798 40.7292 375.798 39.8892H371.498V46.1892H373.798C373.891 45.6825 374.065 45.2092 374.318 44.7692C374.425 44.5692 374.551 44.3758 374.698 44.1892H375.298V48.6892H374.698C374.551 48.5025 374.425 48.3092 374.318 48.1092C374.065 47.6692 373.891 47.1958 373.798 46.6892H371.498V52.8892H376.198C376.198 52.0492 376.411 51.2692 376.838 50.5492C377.025 50.2425 377.245 49.9892 377.498 49.7892H378.098V53.3892H366.998V53.0892ZM384.094 53.0892L385.694 52.4892L391.194 39.1892H391.794L397.494 52.7892L398.494 53.0892V53.3892H396.094C395.401 53.3892 394.834 53.2358 394.394 52.9292C393.954 52.6092 393.627 52.1958 393.414 51.6892L392.394 49.2892H387.614L386.294 52.4892L387.794 53.0892V53.3892H384.094V53.0892ZM387.814 48.7892H392.194L389.994 43.5292L387.814 48.7892ZM400.888 42.7892V52.4892L402.488 53.0892V53.3892H398.688V53.0892L400.288 52.4892V40.0892L398.888 39.6892V39.3892H400.988C401.695 39.3892 402.248 39.5158 402.648 39.7692C403.048 40.0225 403.428 40.3625 403.788 40.7892L410.188 48.2892V40.2892L408.588 39.6892V39.3892H412.388V39.6892L410.788 40.2892V53.6892H410.188L400.888 42.7892ZM416.793 53.0892L417.993 52.7892V48.1892L413.893 39.9892L412.893 39.6892V39.3892H415.393C416.086 39.3892 416.639 39.5358 417.053 39.8292C417.479 40.1225 417.826 40.5425 418.093 41.0892L421.053 46.9892L424.093 40.2892L422.593 39.6892V39.3892H426.393V39.6892L424.793 40.2892L421.293 47.9892V52.7892L422.493 53.0892V53.3892H416.793V53.0892ZM441.199 56.7892C440.479 56.7892 439.845 56.6425 439.299 56.3492C438.752 56.0692 438.332 55.6758 438.039 55.1692C437.745 54.6758 437.599 54.1158 437.599 53.4892C436.065 53.1692 434.865 52.4025 433.999 51.1892C433.132 49.9625 432.699 48.3625 432.699 46.3892C432.699 44.8425 432.965 43.5225 433.499 42.4292C434.032 41.3358 434.785 40.5092 435.759 39.9492C436.745 39.3758 437.892 39.0892 439.199 39.0892C440.505 39.0892 441.645 39.3758 442.619 39.9492C443.605 40.5092 444.365 41.3358 444.899 42.4292C445.432 43.5225 445.699 44.8425 445.699 46.3892C445.699 48.3625 445.265 49.9625 444.399 51.1892C443.532 52.4025 442.332 53.1692 440.799 53.4892C440.799 55.2892 441.132 56.1892 441.799 56.1892C441.985 56.1892 442.132 56.1558 442.239 56.0892C442.252 56.0892 442.305 56.0558 442.399 55.9892L442.599 56.4892C442.545 56.5292 442.439 56.5825 442.279 56.6492C442.039 56.7425 441.679 56.7892 441.199 56.7892ZM439.199 53.2892C439.719 53.2892 440.199 53.0692 440.639 52.6292C441.092 52.1892 441.465 51.4558 441.759 50.4292C442.052 49.4025 442.199 48.0558 442.199 46.3892C442.199 44.7225 442.052 43.3758 441.759 42.3492C441.465 41.3225 441.092 40.5892 440.639 40.1492C440.199 39.7092 439.719 39.4892 439.199 39.4892C438.679 39.4892 438.192 39.7092 437.739 40.1492C437.299 40.5892 436.932 41.3225 436.639 42.3492C436.345 43.3758 436.199 44.7225 436.199 46.3892C436.199 48.0558 436.345 49.4025 436.639 50.4292C436.932 51.4558 437.299 52.1892 437.739 52.6292C438.192 53.0692 438.679 53.2892 439.199 53.2892ZM454.504 53.6892C452.53 53.6892 451.037 53.2292 450.024 52.3092C449.01 51.3758 448.504 50.0692 448.504 48.3892V39.9892L447.304 39.6892V39.3892H453.004V39.6892L451.804 39.9892V48.3892C451.804 50.1092 452.07 51.3425 452.604 52.0892C453.137 52.8225 453.904 53.1892 454.904 53.1892C455.517 53.1892 456.097 52.9958 456.644 52.6092C457.204 52.2092 457.65 51.6492 457.984 50.9292C458.33 50.1958 458.504 49.3492 458.504 48.3892V40.2892L456.904 39.6892V39.3892H460.704V39.6892L459.104 40.2892V48.3892C459.104 49.4692 458.904 50.4092 458.504 51.2092C458.104 52.0092 457.557 52.6225 456.864 53.0492C456.17 53.4758 455.384 53.6892 454.504 53.6892ZM461.803 53.0892L463.003 52.7892V39.9892L461.803 39.6892V39.3892H472.503V42.9892H471.903C471.649 42.7892 471.429 42.5358 471.243 42.2292C470.816 41.5092 470.603 40.7292 470.603 39.8892H466.303V46.1892H468.603C468.696 45.6825 468.869 45.2092 469.123 44.7692C469.229 44.5692 469.356 44.3758 469.503 44.1892H470.103V48.6892H469.503C469.356 48.5025 469.229 48.3092 469.123 48.1092C468.869 47.6692 468.696 47.1958 468.603 46.6892H466.303V52.8892H471.003C471.003 52.0492 471.216 51.2692 471.643 50.5492C471.829 50.2425 472.049 49.9892 472.303 49.7892H472.903V53.3892H461.803V53.0892ZM479.593 53.6892C478.647 53.6892 477.76 53.4758 476.933 53.0492C476.56 52.8625 476.247 52.6425 475.993 52.3892C475.807 52.6958 475.573 52.9692 475.293 53.2092C475.053 53.3825 474.92 53.4758 474.893 53.4892H474.393V49.6892H475.193C475.393 50.3425 475.673 50.9292 476.033 51.4492C476.847 52.6092 477.9 53.1892 479.193 53.1892C479.953 53.1892 480.56 52.9625 481.013 52.5092C481.467 52.0558 481.693 51.4492 481.693 50.6892C481.693 50.2492 481.56 49.8558 481.293 49.5092C481.04 49.1625 480.72 48.8558 480.333 48.5892C479.947 48.3225 479.407 47.9892 478.713 47.5892C477.833 47.0958 477.12 46.6492 476.573 46.2492C476.027 45.8492 475.56 45.3492 475.173 44.7492C474.787 44.1358 474.593 43.4158 474.593 42.5892C474.593 41.9358 474.773 41.3492 475.133 40.8292C475.507 40.2958 476.06 39.8758 476.793 39.5692C477.527 39.2492 478.427 39.0892 479.493 39.0892C480.267 39.0892 481.04 39.3092 481.813 39.7492C482.107 39.9092 482.4 40.1225 482.693 40.3892C482.92 40.0425 483.153 39.7692 483.393 39.5692C483.633 39.3958 483.767 39.3025 483.793 39.2892H484.293V43.0892H483.493C483.32 42.4492 483.06 41.8692 482.713 41.3492C482.393 40.8425 481.993 40.4225 481.513 40.0892C481.047 39.7558 480.507 39.5892 479.893 39.5892C479.373 39.5892 478.927 39.7958 478.553 40.2092C478.18 40.6225 477.993 41.1492 477.993 41.7892C477.993 42.2825 478.133 42.7292 478.413 43.1292C478.707 43.5158 479.06 43.8558 479.473 44.1492C479.9 44.4425 480.473 44.7958 481.193 45.2092C482.033 45.6892 482.713 46.1158 483.233 46.4892C483.753 46.8625 484.193 47.3292 484.553 47.8892C484.913 48.4358 485.093 49.0692 485.093 49.7892C485.093 50.5092 484.887 51.1692 484.473 51.7692C484.06 52.3558 483.44 52.8225 482.613 53.1692C481.787 53.5158 480.78 53.6892 479.593 53.6892ZM489.088 53.0892L490.288 52.7892V39.8892H487.988C487.988 40.7025 487.768 41.4825 487.328 42.2292C487.141 42.5358 486.928 42.7892 486.688 42.9892H486.088V39.3892H497.788V42.9892H497.188C496.935 42.7892 496.715 42.5358 496.528 42.2292C496.101 41.5092 495.888 40.7292 495.888 39.8892H493.588V52.7892L494.788 53.0892V53.3892H489.088V53.0892ZM499.283 53.3892V53.0892L500.483 52.7892V39.9892L499.283 39.6892V39.3892H504.983V39.6892L503.783 39.9892V52.7892L504.983 53.0892V53.3892H499.283ZM513.379 53.6892C512.072 53.6892 510.925 53.4092 509.939 52.8492C508.965 52.2758 508.212 51.4425 507.679 50.3492C507.145 49.2558 506.879 47.9358 506.879 46.3892C506.879 44.8425 507.145 43.5225 507.679 42.4292C508.212 41.3358 508.965 40.5092 509.939 39.9492C510.925 39.3758 512.072 39.0892 513.379 39.0892C514.685 39.0892 515.825 39.3758 516.799 39.9492C517.785 40.5092 518.545 41.3358 519.079 42.4292C519.612 43.5225 519.879 44.8425 519.879 46.3892C519.879 47.9358 519.612 49.2558 519.079 50.3492C518.545 51.4425 517.785 52.2758 516.799 52.8492C515.825 53.4092 514.685 53.6892 513.379 53.6892ZM513.379 53.2892C513.899 53.2892 514.379 53.0692 514.819 52.6292C515.272 52.1892 515.645 51.4558 515.939 50.4292C516.232 49.4025 516.379 48.0558 516.379 46.3892C516.379 44.7225 516.232 43.3758 515.939 42.3492C515.645 41.3225 515.272 40.5892 514.819 40.1492C514.379 39.7092 513.899 39.4892 513.379 39.4892C512.859 39.4892 512.372 39.7092 511.919 40.1492C511.479 40.5892 511.112 41.3225 510.819 42.3492C510.525 43.3758 510.379 44.7225 510.379 46.3892C510.379 48.0558 510.525 49.4025 510.819 50.4292C511.112 51.4558 511.479 52.1892 511.919 52.6292C512.372 53.0692 512.859 53.2892 513.379 53.2892ZM523.583 42.7892V52.4892L525.183 53.0892V53.3892H521.383V53.0892L522.983 52.4892V40.0892L521.583 39.6892V39.3892H523.683C524.39 39.3892 524.943 39.5158 525.343 39.7692C525.743 40.0225 526.123 40.3625 526.483 40.7892L532.883 48.2892V40.2892L531.283 39.6892V39.3892H535.083V39.6892L533.483 40.2892V53.6892H532.883L523.583 42.7892ZM541.488 53.6892C540.541 53.6892 539.655 53.4758 538.828 53.0492C538.455 52.8625 538.141 52.6425 537.888 52.3892C537.701 52.6958 537.468 52.9692 537.188 53.2092C536.948 53.3825 536.815 53.4758 536.788 53.4892H536.288V49.6892H537.088C537.288 50.3425 537.568 50.9292 537.928 51.4492C538.741 52.6092 539.795 53.1892 541.088 53.1892C541.848 53.1892 542.455 52.9625 542.908 52.5092C543.361 52.0558 543.588 51.4492 543.588 50.6892C543.588 50.2492 543.455 49.8558 543.188 49.5092C542.935 49.1625 542.615 48.8558 542.228 48.5892C541.841 48.3225 541.301 47.9892 540.608 47.5892C539.728 47.0958 539.015 46.6492 538.468 46.2492C537.921 45.8492 537.455 45.3492 537.068 44.7492C536.681 44.1358 536.488 43.4158 536.488 42.5892C536.488 41.9358 536.668 41.3492 537.028 40.8292C537.401 40.2958 537.955 39.8758 538.688 39.5692C539.421 39.2492 540.321 39.0892 541.388 39.0892C542.161 39.0892 542.935 39.3092 543.708 39.7492C544.001 39.9092 544.295 40.1225 544.588 40.3892C544.815 40.0425 545.048 39.7692 545.288 39.5692C545.528 39.3958 545.661 39.3025 545.688 39.2892H546.188V43.0892H545.388C545.215 42.4492 544.955 41.8692 544.608 41.3492C544.288 40.8425 543.888 40.4225 543.408 40.0892C542.941 39.7558 542.401 39.5892 541.788 39.5892C541.268 39.5892 540.821 39.7958 540.448 40.2092C540.075 40.6225 539.888 41.1492 539.888 41.7892C539.888 42.2825 540.028 42.7292 540.308 43.1292C540.601 43.5158 540.955 43.8558 541.368 44.1492C541.795 44.4425 542.368 44.7958 543.088 45.2092C543.928 45.6892 544.608 46.1158 545.128 46.4892C545.648 46.8625 546.088 47.3292 546.448 47.8892C546.808 48.4358 546.988 49.0692 546.988 49.7892C546.988 50.5092 546.781 51.1692 546.368 51.7692C545.955 52.3558 545.335 52.8225 544.508 53.1692C543.681 53.5158 542.675 53.6892 541.488 53.6892ZM551.982 47.1892C552.796 46.8692 553.416 46.4025 553.842 45.7892C554.269 45.1758 554.482 44.3092 554.482 43.1892C554.482 41.9092 554.249 40.9892 553.782 40.4292C553.329 39.8692 552.629 39.5892 551.682 39.5892C551.296 39.5892 550.902 39.6425 550.502 39.7492L550.082 39.8892V43.0892L549.822 43.1492C549.609 43.1758 549.429 43.1892 549.282 43.1892C548.829 43.1892 548.462 43.0558 548.182 42.7892C547.916 42.5092 547.782 42.1425 547.782 41.6892C547.782 41.2625 547.942 40.8492 548.262 40.4492C548.596 40.0492 549.082 39.7225 549.722 39.4692C550.376 39.2158 551.162 39.0892 552.082 39.0892C554.029 39.0892 555.496 39.4692 556.482 40.2292C557.482 40.9892 557.982 41.9758 557.982 43.1892C557.982 44.3225 557.562 45.2625 556.722 46.0092C555.896 46.7558 554.649 47.2492 552.982 47.4892L552.882 49.0892H552.082L551.982 47.1892ZM552.382 53.5892C551.982 53.5892 551.629 53.4358 551.322 53.1292C551.029 52.8092 550.882 52.4292 550.882 51.9892C550.882 51.5492 551.029 51.1758 551.322 50.8692C551.629 50.5492 551.982 50.3892 552.382 50.3892C552.782 50.3892 553.129 50.5492 553.422 50.8692C553.729 51.1758 553.882 51.5492 553.882 51.9892C553.882 52.4292 553.729 52.8092 553.422 53.1292C553.129 53.4358 552.782 53.5892 552.382 53.5892Z" fill="white"/>
<rect x="299.389" y="292.453" width="18" height="18" rx="1" fill="#E3B873"/>
<path d="M313.236 297.991L307.524 303.703L304.928 301.106" stroke="white" stroke-width="1.5"/>
<path d="M327.227 308.214V298.344H328.375V308.214H327.227ZM336.393 308.34C335.926 308.34 335.506 308.252 335.133 308.074C334.769 307.888 334.479 307.636 334.265 307.318C334.05 307.001 333.943 306.646 333.943 306.254C333.943 305.76 334.069 305.368 334.321 305.078C334.582 304.789 335.007 304.584 335.595 304.462C336.192 304.332 337.004 304.266 338.031 304.266H338.479V303.832C338.479 303.254 338.357 302.838 338.115 302.586C337.881 302.325 337.503 302.194 336.981 302.194C336.57 302.194 336.173 302.255 335.791 302.376C335.408 302.488 335.016 302.675 334.615 302.936L334.223 302.11C334.577 301.858 335.007 301.658 335.511 301.508C336.024 301.359 336.514 301.284 336.981 301.284C337.858 301.284 338.507 301.499 338.927 301.928C339.356 302.358 339.571 303.025 339.571 303.93V308.214H338.507V307.038C338.329 307.44 338.054 307.757 337.681 307.99C337.317 308.224 336.887 308.34 336.393 308.34ZM336.575 307.486C337.135 307.486 337.592 307.295 337.947 306.912C338.301 306.52 338.479 306.026 338.479 305.428V305.008H338.045C337.289 305.008 336.691 305.046 336.253 305.12C335.823 305.186 335.52 305.307 335.343 305.484C335.175 305.652 335.091 305.886 335.091 306.184C335.091 306.567 335.221 306.88 335.483 307.122C335.753 307.365 336.117 307.486 336.575 307.486ZM344.685 310.86C344.097 310.86 343.541 310.781 343.019 310.622C342.505 310.473 342.048 310.244 341.647 309.936L342.025 309.11C342.445 309.409 342.86 309.624 343.271 309.754C343.691 309.885 344.143 309.95 344.629 309.95C345.973 309.95 346.645 309.26 346.645 307.878V306.674C346.449 307.104 346.141 307.444 345.721 307.696C345.31 307.939 344.839 308.06 344.307 308.06C343.681 308.06 343.14 307.916 342.683 307.626C342.225 307.337 341.871 306.94 341.619 306.436C341.376 305.923 341.255 305.33 341.255 304.658C341.255 303.986 341.376 303.398 341.619 302.894C341.871 302.381 342.225 301.984 342.683 301.704C343.14 301.424 343.681 301.284 344.307 301.284C344.839 301.284 345.31 301.406 345.721 301.648C346.141 301.891 346.449 302.222 346.645 302.642V301.41H347.751V307.724C347.751 308.77 347.489 309.554 346.967 310.076C346.453 310.599 345.693 310.86 344.685 310.86ZM344.517 307.136C345.17 307.136 345.688 306.912 346.071 306.464C346.453 306.016 346.645 305.414 346.645 304.658C346.645 303.902 346.453 303.305 346.071 302.866C345.688 302.418 345.17 302.194 344.517 302.194C343.873 302.194 343.359 302.418 342.977 302.866C342.594 303.305 342.403 303.902 342.403 304.658C342.403 305.414 342.594 306.016 342.977 306.464C343.359 306.912 343.873 307.136 344.517 307.136ZM349.878 308.214V301.41H350.984V302.628C351.348 301.807 352.094 301.354 353.224 301.27L353.63 301.228L353.714 302.208L353 302.292C352.356 302.348 351.866 302.554 351.53 302.908C351.194 303.254 351.026 303.73 351.026 304.336V308.214H349.878ZM357.879 308.34C356.806 308.34 355.957 308.028 355.331 307.402C354.706 306.768 354.393 305.909 354.393 304.826C354.393 304.126 354.533 303.51 354.813 302.978C355.093 302.437 355.476 302.022 355.961 301.732C356.456 301.434 357.025 301.284 357.669 301.284C358.593 301.284 359.317 301.583 359.839 302.18C360.362 302.768 360.623 303.58 360.623 304.616V305.05H355.499C355.537 305.825 355.761 306.418 356.171 306.828C356.582 307.23 357.151 307.43 357.879 307.43C358.29 307.43 358.682 307.37 359.055 307.248C359.429 307.118 359.783 306.908 360.119 306.618L360.511 307.416C360.203 307.706 359.811 307.934 359.335 308.102C358.859 308.261 358.374 308.34 357.879 308.34ZM357.697 302.124C357.053 302.124 356.545 302.325 356.171 302.726C355.798 303.128 355.579 303.655 355.513 304.308H359.643C359.615 303.618 359.433 303.081 359.097 302.698C358.771 302.316 358.304 302.124 357.697 302.124ZM365.33 308.34C364.257 308.34 363.408 308.028 362.782 307.402C362.157 306.768 361.844 305.909 361.844 304.826C361.844 304.126 361.984 303.51 362.264 302.978C362.544 302.437 362.927 302.022 363.412 301.732C363.907 301.434 364.476 301.284 365.12 301.284C366.044 301.284 366.768 301.583 367.29 302.18C367.813 302.768 368.074 303.58 368.074 304.616V305.05H362.95C362.988 305.825 363.212 306.418 363.622 306.828C364.033 307.23 364.602 307.43 365.33 307.43C365.741 307.43 366.133 307.37 366.506 307.248C366.88 307.118 367.234 306.908 367.57 306.618L367.962 307.416C367.654 307.706 367.262 307.934 366.786 308.102C366.31 308.261 365.825 308.34 365.33 308.34ZM365.148 302.124C364.504 302.124 363.996 302.325 363.622 302.726C363.249 303.128 363.03 303.655 362.964 304.308H367.094C367.066 303.618 366.884 303.081 366.548 302.698C366.222 302.316 365.755 302.124 365.148 302.124ZM376.041 308.34C375.239 308.34 374.637 308.13 374.235 307.71C373.834 307.281 373.633 306.665 373.633 305.862V302.292H372.303V301.41H373.633V299.324H374.767V301.41H376.923V302.292H374.767V305.75C374.767 306.282 374.879 306.688 375.103 306.968C375.327 307.239 375.691 307.374 376.195 307.374C376.345 307.374 376.494 307.356 376.643 307.318C376.793 307.281 376.928 307.244 377.049 307.206L377.245 308.074C377.124 308.14 376.947 308.2 376.713 308.256C376.48 308.312 376.256 308.34 376.041 308.34ZM380.965 308.34C380.303 308.34 379.729 308.196 379.243 307.906C378.758 307.617 378.38 307.211 378.109 306.688C377.848 306.156 377.717 305.531 377.717 304.812C377.717 304.094 377.848 303.473 378.109 302.95C378.38 302.418 378.758 302.008 379.243 301.718C379.729 301.429 380.303 301.284 380.965 301.284C381.619 301.284 382.188 301.429 382.673 301.718C383.168 302.008 383.546 302.418 383.807 302.95C384.078 303.473 384.213 304.094 384.213 304.812C384.213 305.531 384.078 306.156 383.807 306.688C383.546 307.211 383.168 307.617 382.673 307.906C382.188 308.196 381.619 308.34 380.965 308.34ZM380.965 307.43C381.6 307.43 382.109 307.206 382.491 306.758C382.874 306.301 383.065 305.652 383.065 304.812C383.065 303.963 382.874 303.314 382.491 302.866C382.109 302.418 381.6 302.194 380.965 302.194C380.321 302.194 379.808 302.418 379.425 302.866C379.052 303.314 378.865 303.963 378.865 304.812C378.865 305.652 379.052 306.301 379.425 306.758C379.808 307.206 380.321 307.43 380.965 307.43ZM392.242 308.34C391.44 308.34 390.838 308.13 390.436 307.71C390.035 307.281 389.834 306.665 389.834 305.862V302.292H388.504V301.41H389.834V299.324H390.968V301.41H393.124V302.292H390.968V305.75C390.968 306.282 391.08 306.688 391.304 306.968C391.528 307.239 391.892 307.374 392.396 307.374C392.546 307.374 392.695 307.356 392.844 307.318C392.994 307.281 393.129 307.244 393.25 307.206L393.446 308.074C393.325 308.14 393.148 308.2 392.914 308.256C392.681 308.312 392.457 308.34 392.242 308.34ZM394.407 308.214V298.344H395.541V302.53C395.765 302.12 396.078 301.812 396.479 301.606C396.89 301.392 397.347 301.284 397.851 301.284C399.466 301.284 400.273 302.18 400.273 303.972V308.214H399.139V304.042C399.139 303.408 399.013 302.946 398.761 302.656C398.518 302.358 398.126 302.208 397.585 302.208C396.96 302.208 396.46 302.404 396.087 302.796C395.723 303.179 395.541 303.692 395.541 304.336V308.214H394.407ZM405.43 308.34C404.357 308.34 403.507 308.028 402.882 307.402C402.257 306.768 401.944 305.909 401.944 304.826C401.944 304.126 402.084 303.51 402.364 302.978C402.644 302.437 403.027 302.022 403.512 301.732C404.007 301.434 404.576 301.284 405.22 301.284C406.144 301.284 406.867 301.583 407.39 302.18C407.913 302.768 408.174 303.58 408.174 304.616V305.05H403.05C403.087 305.825 403.311 306.418 403.722 306.828C404.133 307.23 404.702 307.43 405.43 307.43C405.841 307.43 406.233 307.37 406.606 307.248C406.979 307.118 407.334 306.908 407.67 306.618L408.062 307.416C407.754 307.706 407.362 307.934 406.886 308.102C406.41 308.261 405.925 308.34 405.43 308.34ZM405.248 302.124C404.604 302.124 404.095 302.325 403.722 302.726C403.349 303.128 403.129 303.655 403.064 304.308H407.194C407.166 303.618 406.984 303.081 406.648 302.698C406.321 302.316 405.855 302.124 405.248 302.124ZM413.411 310.734V301.41H414.517V302.628C414.722 302.208 415.026 301.882 415.427 301.648C415.838 301.406 416.314 301.284 416.855 301.284C417.462 301.284 417.989 301.429 418.437 301.718C418.894 301.998 419.244 302.404 419.487 302.936C419.739 303.459 419.865 304.084 419.865 304.812C419.865 305.531 419.739 306.156 419.487 306.688C419.244 307.211 418.894 307.617 418.437 307.906C417.989 308.196 417.462 308.34 416.855 308.34C416.332 308.34 415.866 308.224 415.455 307.99C415.044 307.757 414.741 307.435 414.545 307.024V310.734H413.411ZM416.617 307.43C417.252 307.43 417.76 307.206 418.143 306.758C418.526 306.301 418.717 305.652 418.717 304.812C418.717 303.963 418.526 303.314 418.143 302.866C417.76 302.418 417.252 302.194 416.617 302.194C415.982 302.194 415.474 302.418 415.091 302.866C414.708 303.314 414.517 303.963 414.517 304.812C414.517 305.652 414.708 306.301 415.091 306.758C415.474 307.206 415.982 307.43 416.617 307.43ZM421.573 308.214V301.41H422.679V302.628C423.043 301.807 423.79 301.354 424.919 301.27L425.325 301.228L425.409 302.208L424.695 302.292C424.051 302.348 423.561 302.554 423.225 302.908C422.889 303.254 422.721 303.73 422.721 304.336V308.214H421.573ZM429.337 308.34C428.674 308.34 428.1 308.196 427.615 307.906C427.129 307.617 426.751 307.211 426.481 306.688C426.219 306.156 426.089 305.531 426.089 304.812C426.089 304.094 426.219 303.473 426.481 302.95C426.751 302.418 427.129 302.008 427.615 301.718C428.1 301.429 428.674 301.284 429.337 301.284C429.99 301.284 430.559 301.429 431.045 301.718C431.539 302.008 431.917 302.418 432.179 302.95C432.449 303.473 432.585 304.094 432.585 304.812C432.585 305.531 432.449 306.156 432.179 306.688C431.917 307.211 431.539 307.617 431.045 307.906C430.559 308.196 429.99 308.34 429.337 308.34ZM429.337 307.43C429.971 307.43 430.48 307.206 430.863 306.758C431.245 306.301 431.437 305.652 431.437 304.812C431.437 303.963 431.245 303.314 430.863 302.866C430.48 302.418 429.971 302.194 429.337 302.194C428.693 302.194 428.179 302.418 427.797 302.866C427.423 303.314 427.237 303.963 427.237 304.812C427.237 305.652 427.423 306.301 427.797 306.758C428.179 307.206 428.693 307.43 429.337 307.43ZM437.172 308.34C436.491 308.34 435.903 308.196 435.408 307.906C434.913 307.608 434.531 307.192 434.26 306.66C433.999 306.119 433.868 305.489 433.868 304.77C433.868 303.688 434.162 302.838 434.75 302.222C435.338 301.597 436.145 301.284 437.172 301.284C437.592 301.284 438.007 301.359 438.418 301.508C438.829 301.658 439.169 301.868 439.44 302.138L439.048 302.964C438.777 302.703 438.479 302.512 438.152 302.39C437.835 302.269 437.531 302.208 437.242 302.208C436.533 302.208 435.987 302.432 435.604 302.88C435.221 303.319 435.03 303.954 435.03 304.784C435.03 305.596 435.221 306.24 435.604 306.716C435.987 307.183 436.533 307.416 437.242 307.416C437.531 307.416 437.835 307.356 438.152 307.234C438.479 307.113 438.777 306.917 439.048 306.646L439.44 307.472C439.169 307.743 438.824 307.958 438.404 308.116C437.993 308.266 437.583 308.34 437.172 308.34ZM443.698 308.34C442.624 308.34 441.775 308.028 441.15 307.402C440.524 306.768 440.212 305.909 440.212 304.826C440.212 304.126 440.352 303.51 440.632 302.978C440.912 302.437 441.294 302.022 441.78 301.732C442.274 301.434 442.844 301.284 443.488 301.284C444.412 301.284 445.135 301.583 445.658 302.18C446.18 302.768 446.442 303.58 446.442 304.616V305.05H441.318C441.355 305.825 441.579 306.418 441.99 306.828C442.4 307.23 442.97 307.43 443.698 307.43C444.108 307.43 444.5 307.37 444.874 307.248C445.247 307.118 445.602 306.908 445.938 306.618L446.33 307.416C446.022 307.706 445.63 307.934 445.154 308.102C444.678 308.261 444.192 308.34 443.698 308.34ZM443.516 302.124C442.872 302.124 442.363 302.325 441.99 302.726C441.616 303.128 441.397 303.655 441.332 304.308H445.462C445.434 303.618 445.252 303.081 444.916 302.698C444.589 302.316 444.122 302.124 443.516 302.124ZM450.379 308.34C449.847 308.34 449.343 308.266 448.867 308.116C448.391 307.967 447.999 307.757 447.691 307.486L448.055 306.688C448.391 306.959 448.759 307.16 449.161 307.29C449.571 307.412 449.987 307.472 450.407 307.472C450.939 307.472 451.34 307.374 451.611 307.178C451.881 306.982 452.017 306.716 452.017 306.38C452.017 306.119 451.928 305.914 451.751 305.764C451.573 305.606 451.293 305.484 450.911 305.4L449.637 305.12C448.479 304.868 447.901 304.271 447.901 303.328C447.901 302.712 448.143 302.218 448.629 301.844C449.123 301.471 449.767 301.284 450.561 301.284C451.027 301.284 451.471 301.359 451.891 301.508C452.32 301.648 452.675 301.858 452.955 302.138L452.577 302.936C452.306 302.684 451.989 302.493 451.625 302.362C451.27 302.222 450.915 302.152 450.561 302.152C450.038 302.152 449.641 302.255 449.371 302.46C449.1 302.666 448.965 302.936 448.965 303.272C448.965 303.795 449.31 304.131 450.001 304.28L451.275 304.546C451.872 304.677 452.325 304.887 452.633 305.176C452.941 305.456 453.095 305.839 453.095 306.324C453.095 306.95 452.847 307.444 452.353 307.808C451.858 308.163 451.2 308.34 450.379 308.34ZM457.119 308.34C456.587 308.34 456.083 308.266 455.607 308.116C455.131 307.967 454.739 307.757 454.431 307.486L454.795 306.688C455.131 306.959 455.5 307.16 455.901 307.29C456.312 307.412 456.727 307.472 457.147 307.472C457.679 307.472 458.08 307.374 458.351 307.178C458.622 306.982 458.757 306.716 458.757 306.38C458.757 306.119 458.668 305.914 458.491 305.764C458.314 305.606 458.034 305.484 457.651 305.4L456.377 305.12C455.22 304.868 454.641 304.271 454.641 303.328C454.641 302.712 454.884 302.218 455.369 301.844C455.864 301.471 456.508 301.284 457.301 301.284C457.768 301.284 458.211 301.359 458.631 301.508C459.06 301.648 459.415 301.858 459.695 302.138L459.317 302.936C459.046 302.684 458.729 302.493 458.365 302.362C458.01 302.222 457.656 302.152 457.301 302.152C456.778 302.152 456.382 302.255 456.111 302.46C455.84 302.666 455.705 302.936 455.705 303.272C455.705 303.795 456.05 304.131 456.741 304.28L458.015 304.546C458.612 304.677 459.065 304.887 459.373 305.176C459.681 305.456 459.835 305.839 459.835 306.324C459.835 306.95 459.588 307.444 459.093 307.808C458.598 308.163 457.94 308.34 457.119 308.34ZM461.423 299.716V298.442H462.823V299.716H461.423ZM461.563 308.214V301.41H462.697V308.214H461.563ZM464.817 308.214V301.41H465.923V302.572C466.147 302.143 466.464 301.821 466.875 301.606C467.286 301.392 467.748 301.284 468.261 301.284C469.876 301.284 470.683 302.18 470.683 303.972V308.214H469.549V304.042C469.549 303.408 469.423 302.946 469.171 302.656C468.928 302.358 468.536 302.208 467.995 302.208C467.37 302.208 466.87 302.404 466.497 302.796C466.133 303.179 465.951 303.692 465.951 304.336V308.214H464.817ZM475.784 310.86C475.196 310.86 474.641 310.781 474.118 310.622C473.605 310.473 473.148 310.244 472.746 309.936L473.124 309.11C473.544 309.409 473.96 309.624 474.37 309.754C474.79 309.885 475.243 309.95 475.728 309.95C477.072 309.95 477.744 309.26 477.744 307.878V306.674C477.548 307.104 477.24 307.444 476.82 307.696C476.41 307.939 475.938 308.06 475.406 308.06C474.781 308.06 474.24 307.916 473.782 307.626C473.325 307.337 472.97 306.94 472.718 306.436C472.476 305.923 472.354 305.33 472.354 304.658C472.354 303.986 472.476 303.398 472.718 302.894C472.97 302.381 473.325 301.984 473.782 301.704C474.24 301.424 474.781 301.284 475.406 301.284C475.938 301.284 476.41 301.406 476.82 301.648C477.24 301.891 477.548 302.222 477.744 302.642V301.41H478.85V307.724C478.85 308.77 478.589 309.554 478.066 310.076C477.553 310.599 476.792 310.86 475.784 310.86ZM475.616 307.136C476.27 307.136 476.788 306.912 477.17 306.464C477.553 306.016 477.744 305.414 477.744 304.658C477.744 303.902 477.553 303.305 477.17 302.866C476.788 302.418 476.27 302.194 475.616 302.194C474.972 302.194 474.459 302.418 474.076 302.866C473.694 303.305 473.502 303.902 473.502 304.658C473.502 305.414 473.694 306.016 474.076 306.464C474.459 306.912 474.972 307.136 475.616 307.136ZM487.401 308.34C486.738 308.34 486.164 308.196 485.679 307.906C485.194 307.617 484.816 307.211 484.545 306.688C484.284 306.156 484.153 305.531 484.153 304.812C484.153 304.094 484.284 303.473 484.545 302.95C484.816 302.418 485.194 302.008 485.679 301.718C486.164 301.429 486.738 301.284 487.401 301.284C488.054 301.284 488.624 301.429 489.109 301.718C489.604 302.008 489.982 302.418 490.243 302.95C490.514 303.473 490.649 304.094 490.649 304.812C490.649 305.531 490.514 306.156 490.243 306.688C489.982 307.211 489.604 307.617 489.109 307.906C488.624 308.196 488.054 308.34 487.401 308.34ZM487.401 307.43C488.036 307.43 488.544 307.206 488.927 306.758C489.31 306.301 489.501 305.652 489.501 304.812C489.501 303.963 489.31 303.314 488.927 302.866C488.544 302.418 488.036 302.194 487.401 302.194C486.757 302.194 486.244 302.418 485.861 302.866C485.488 303.314 485.301 303.963 485.301 304.812C485.301 305.652 485.488 306.301 485.861 306.758C486.244 307.206 486.757 307.43 487.401 307.43ZM492.648 308.214V302.292H491.304V301.41H492.648V301.172C492.648 300.267 492.872 299.581 493.32 299.114C493.777 298.648 494.477 298.386 495.42 298.33L495.966 298.302L496.064 299.17L495.42 299.212C494.841 299.259 494.421 299.432 494.16 299.73C493.908 300.029 493.782 300.463 493.782 301.032V301.41H495.742V302.292H493.782V308.214H492.648ZM500.542 310.734V301.41H501.648V302.628C501.853 302.208 502.156 301.882 502.558 301.648C502.968 301.406 503.444 301.284 503.986 301.284C504.592 301.284 505.12 301.429 505.568 301.718C506.025 301.998 506.375 302.404 506.618 302.936C506.87 303.459 506.996 304.084 506.996 304.812C506.996 305.531 506.87 306.156 506.618 306.688C506.375 307.211 506.025 307.617 505.568 307.906C505.12 308.196 504.592 308.34 503.986 308.34C503.463 308.34 502.996 308.224 502.586 307.99C502.175 307.757 501.872 307.435 501.676 307.024V310.734H500.542ZM503.748 307.43C504.382 307.43 504.891 307.206 505.274 306.758C505.656 306.301 505.848 305.652 505.848 304.812C505.848 303.963 505.656 303.314 505.274 302.866C504.891 302.418 504.382 302.194 503.748 302.194C503.113 302.194 502.604 302.418 502.222 302.866C501.839 303.314 501.648 303.963 501.648 304.812C501.648 305.652 501.839 306.301 502.222 306.758C502.604 307.206 503.113 307.43 503.748 307.43ZM511.77 308.34C510.697 308.34 509.847 308.028 509.222 307.402C508.597 306.768 508.284 305.909 508.284 304.826C508.284 304.126 508.424 303.51 508.704 302.978C508.984 302.437 509.367 302.022 509.852 301.732C510.347 301.434 510.916 301.284 511.56 301.284C512.484 301.284 513.207 301.583 513.73 302.18C514.253 302.768 514.514 303.58 514.514 304.616V305.05H509.39C509.427 305.825 509.651 306.418 510.062 306.828C510.473 307.23 511.042 307.43 511.77 307.43C512.181 307.43 512.573 307.37 512.946 307.248C513.319 307.118 513.674 306.908 514.01 306.618L514.402 307.416C514.094 307.706 513.702 307.934 513.226 308.102C512.75 308.261 512.265 308.34 511.77 308.34ZM511.588 302.124C510.944 302.124 510.435 302.325 510.062 302.726C509.689 303.128 509.469 303.655 509.404 304.308H513.534C513.506 303.618 513.324 303.081 512.988 302.698C512.661 302.316 512.195 302.124 511.588 302.124ZM516.155 308.214V301.41H517.261V302.628C517.625 301.807 518.372 301.354 519.501 301.27L519.907 301.228L519.991 302.208L519.277 302.292C518.633 302.348 518.143 302.554 517.807 302.908C517.471 303.254 517.303 303.73 517.303 304.336V308.214H516.155ZM523.4 308.34C522.868 308.34 522.364 308.266 521.888 308.116C521.412 307.967 521.02 307.757 520.712 307.486L521.076 306.688C521.412 306.959 521.781 307.16 522.182 307.29C522.593 307.412 523.008 307.472 523.428 307.472C523.96 307.472 524.362 307.374 524.632 307.178C524.903 306.982 525.038 306.716 525.038 306.38C525.038 306.119 524.95 305.914 524.772 305.764C524.595 305.606 524.315 305.484 523.932 305.4L522.658 305.12C521.501 304.868 520.922 304.271 520.922 303.328C520.922 302.712 521.165 302.218 521.65 301.844C522.145 301.471 522.789 301.284 523.582 301.284C524.049 301.284 524.492 301.359 524.912 301.508C525.342 301.648 525.696 301.858 525.976 302.138L525.598 302.936C525.328 302.684 525.01 302.493 524.646 302.362C524.292 302.222 523.937 302.152 523.582 302.152C523.06 302.152 522.663 302.255 522.392 302.46C522.122 302.666 521.986 302.936 521.986 303.272C521.986 303.795 522.332 304.131 523.022 304.28L524.296 304.546C524.894 304.677 525.346 304.887 525.654 305.176C525.962 305.456 526.116 305.839 526.116 306.324C526.116 306.95 525.869 307.444 525.374 307.808C524.88 308.163 524.222 308.34 523.4 308.34ZM530.673 308.34C530.01 308.34 529.436 308.196 528.951 307.906C528.465 307.617 528.087 307.211 527.817 306.688C527.555 306.156 527.425 305.531 527.425 304.812C527.425 304.094 527.555 303.473 527.817 302.95C528.087 302.418 528.465 302.008 528.951 301.718C529.436 301.429 530.01 301.284 530.673 301.284C531.326 301.284 531.895 301.429 532.381 301.718C532.875 302.008 533.253 302.418 533.515 302.95C533.785 303.473 533.921 304.094 533.921 304.812C533.921 305.531 533.785 306.156 533.515 306.688C533.253 307.211 532.875 307.617 532.381 307.906C531.895 308.196 531.326 308.34 530.673 308.34ZM530.673 307.43C531.307 307.43 531.816 307.206 532.199 306.758C532.581 306.301 532.773 305.652 532.773 304.812C532.773 303.963 532.581 303.314 532.199 302.866C531.816 302.418 531.307 302.194 530.673 302.194C530.029 302.194 529.515 302.418 529.133 302.866C528.759 303.314 528.573 303.963 528.573 304.812C528.573 305.652 528.759 306.301 529.133 306.758C529.515 307.206 530.029 307.43 530.673 307.43ZM535.624 308.214V301.41H536.73V302.572C536.954 302.143 537.271 301.821 537.682 301.606C538.092 301.392 538.554 301.284 539.068 301.284C540.682 301.284 541.49 302.18 541.49 303.972V308.214H540.356V304.042C540.356 303.408 540.23 302.946 539.978 302.656C539.735 302.358 539.343 302.208 538.802 302.208C538.176 302.208 537.677 302.404 537.304 302.796C536.94 303.179 536.758 303.692 536.758 304.336V308.214H535.624ZM545.723 308.34C545.256 308.34 544.836 308.252 544.463 308.074C544.099 307.888 543.809 307.636 543.595 307.318C543.38 307.001 543.273 306.646 543.273 306.254C543.273 305.76 543.399 305.368 543.651 305.078C543.912 304.789 544.337 304.584 544.925 304.462C545.522 304.332 546.334 304.266 547.361 304.266H547.809V303.832C547.809 303.254 547.687 302.838 547.445 302.586C547.211 302.325 546.833 302.194 546.311 302.194C545.9 302.194 545.503 302.255 545.121 302.376C544.738 302.488 544.346 302.675 543.945 302.936L543.553 302.11C543.907 301.858 544.337 301.658 544.841 301.508C545.354 301.359 545.844 301.284 546.311 301.284C547.188 301.284 547.837 301.499 548.257 301.928C548.686 302.358 548.901 303.025 548.901 303.93V308.214H547.837V307.038C547.659 307.44 547.384 307.757 547.011 307.99C546.647 308.224 546.217 308.34 545.723 308.34ZM545.905 307.486C546.465 307.486 546.922 307.295 547.277 306.912C547.631 306.52 547.809 306.026 547.809 305.428V305.008H547.375C546.619 305.008 546.021 305.046 545.583 305.12C545.153 305.186 544.85 305.307 544.673 305.484C544.505 305.652 544.421 305.886 544.421 306.184C544.421 306.567 544.551 306.88 544.813 307.122C545.083 307.365 545.447 307.486 545.905 307.486ZM553.091 308.34C552.4 308.34 551.877 308.14 551.523 307.738C551.177 307.328 551.005 306.735 551.005 305.96V298.344H552.139V305.876C552.139 306.875 552.535 307.374 553.329 307.374C553.562 307.374 553.772 307.346 553.959 307.29L553.931 308.242C553.641 308.308 553.361 308.34 553.091 308.34ZM329.663 331.34C329.056 331.34 328.524 331.196 328.067 330.906C327.619 330.617 327.269 330.211 327.017 329.688C326.774 329.156 326.653 328.531 326.653 327.812C326.653 327.084 326.774 326.459 327.017 325.936C327.269 325.404 327.619 324.998 328.067 324.718C328.524 324.429 329.056 324.284 329.663 324.284C330.195 324.284 330.662 324.401 331.063 324.634C331.474 324.868 331.777 325.19 331.973 325.6V321.344H333.107V331.214H332.001V329.968C331.805 330.398 331.502 330.734 331.091 330.976C330.68 331.219 330.204 331.34 329.663 331.34ZM329.901 330.43C330.536 330.43 331.044 330.206 331.427 329.758C331.81 329.301 332.001 328.652 332.001 327.812C332.001 326.963 331.81 326.314 331.427 325.866C331.044 325.418 330.536 325.194 329.901 325.194C329.257 325.194 328.744 325.418 328.361 325.866C327.988 326.314 327.801 326.963 327.801 327.812C327.801 328.652 327.988 329.301 328.361 329.758C328.744 330.206 329.257 330.43 329.901 330.43ZM337.377 331.34C336.91 331.34 336.49 331.252 336.117 331.074C335.753 330.888 335.464 330.636 335.249 330.318C335.034 330.001 334.927 329.646 334.927 329.254C334.927 328.76 335.053 328.368 335.305 328.078C335.566 327.789 335.991 327.584 336.579 327.462C337.176 327.332 337.988 327.266 339.015 327.266H339.463V326.832C339.463 326.254 339.342 325.838 339.099 325.586C338.866 325.325 338.488 325.194 337.965 325.194C337.554 325.194 337.158 325.255 336.775 325.376C336.392 325.488 336 325.675 335.599 325.936L335.207 325.11C335.562 324.858 335.991 324.658 336.495 324.508C337.008 324.359 337.498 324.284 337.965 324.284C338.842 324.284 339.491 324.499 339.911 324.928C340.34 325.358 340.555 326.025 340.555 326.93V331.214H339.491V330.038C339.314 330.44 339.038 330.757 338.665 330.99C338.301 331.224 337.872 331.34 337.377 331.34ZM337.559 330.486C338.119 330.486 338.576 330.295 338.931 329.912C339.286 329.52 339.463 329.026 339.463 328.428V328.008H339.029C338.273 328.008 337.676 328.046 337.237 328.12C336.808 328.186 336.504 328.307 336.327 328.484C336.159 328.652 336.075 328.886 336.075 329.184C336.075 329.567 336.206 329.88 336.467 330.122C336.738 330.365 337.102 330.486 337.559 330.486ZM345.389 331.34C344.586 331.34 343.984 331.13 343.583 330.71C343.182 330.281 342.981 329.665 342.981 328.862V325.292H341.651V324.41H342.981V322.324H344.115V324.41H346.271V325.292H344.115V328.75C344.115 329.282 344.227 329.688 344.451 329.968C344.675 330.239 345.039 330.374 345.543 330.374C345.692 330.374 345.842 330.356 345.991 330.318C346.14 330.281 346.276 330.244 346.397 330.206L346.593 331.074C346.472 331.14 346.294 331.2 346.061 331.256C345.828 331.312 345.604 331.34 345.389 331.34ZM349.695 331.34C349.229 331.34 348.809 331.252 348.435 331.074C348.071 330.888 347.782 330.636 347.567 330.318C347.353 330.001 347.245 329.646 347.245 329.254C347.245 328.76 347.371 328.368 347.623 328.078C347.885 327.789 348.309 327.584 348.897 327.462C349.495 327.332 350.307 327.266 351.333 327.266H351.781V326.832C351.781 326.254 351.66 325.838 351.417 325.586C351.184 325.325 350.806 325.194 350.283 325.194C349.873 325.194 349.476 325.255 349.093 325.376C348.711 325.488 348.319 325.675 347.917 325.936L347.525 325.11C347.88 324.858 348.309 324.658 348.813 324.508C349.327 324.359 349.817 324.284 350.283 324.284C351.161 324.284 351.809 324.499 352.229 324.928C352.659 325.358 352.873 326.025 352.873 326.93V331.214H351.809V330.038C351.632 330.44 351.357 330.757 350.983 330.99C350.619 331.224 350.19 331.34 349.695 331.34ZM349.877 330.486C350.437 330.486 350.895 330.295 351.249 329.912C351.604 329.52 351.781 329.026 351.781 328.428V328.008H351.347C350.591 328.008 349.994 328.046 349.555 328.12C349.126 328.186 348.823 328.307 348.645 328.484C348.477 328.652 348.393 328.886 348.393 329.184C348.393 329.567 348.524 329.88 348.785 330.122C349.056 330.365 349.42 330.486 349.877 330.486Z" fill="white"/>
</g>
<defs>
<filter id="filter0_d_1_14033" x="322.199" y="345.905" width="240" height="91" filterUnits="userSpaceOnUse" color-interpolation-filters="sRGB">
<feFlood flood-opacity="0" result="BackgroundImageFix"/>
<feColorMatrix in="SourceAlpha" type="matrix" values="0 0 0 0 0 0 0 0 0 0 0 0 0 0 0 0 0 0 127 0" result="hardAlpha"/>
<feOffset dy="5"/>
<feGaussianBlur stdDeviation="10"/>
<feColorMatrix type="matrix" values="0 0 0 0 0.890196 0 0 0 0 0.721569 0 0 0 0 0.45098 0 0 0 0.1 0"/>
<feBlend mode="normal" in2="BackgroundImageFix" result="effect1_dropShadow_1_14033"/>
<feBlend mode="normal" in="SourceGraphic" in2="effect1_dropShadow_1_14033" result="shape"/>
</filter>
</defs>
</svg>
